<svg version="1.1" id="Layer_1" xmlns="http://www.w3.org/2000/svg" xmlns:xlink="http://www.w3.org/1999/xlink" x="0px" y="0px"
	 width="100%" viewBox="0 0 3000 3000" enable-background="new 0 0 3000 3000" xml:space="preserve">
<path fill="#000000" opacity="1.000000" stroke="none" 
	d="
M1656.000000,3002.000000 
	C1104.000122,3002.000000 553.000183,3002.000000 2.000222,3002.000000 
	C2.000148,2002.000244 2.000148,1002.000549 2.000074,2.000624 
	C1001.999512,2.000416 2001.999023,2.000416 3001.999023,2.000208 
	C3001.999268,1001.999329 3001.999268,2001.998657 3001.999512,3001.999023 
	C2553.666748,3002.000000 2105.333252,3002.000000 1656.000000,3002.000000 
M293.048920,1378.907593 
	C293.548370,1385.834351 293.651367,1392.818481 294.645599,1399.673462 
	C295.947784,1408.651855 298.091766,1417.504517 299.624176,1426.453979 
	C301.882080,1439.640747 303.871582,1452.873413 306.078094,1466.069336 
	C306.828949,1470.559448 307.683929,1475.052368 308.850677,1479.448608 
	C311.674164,1490.087280 314.697144,1500.673340 317.661682,1511.274536 
	C322.206360,1527.525879 326.403168,1543.886475 331.427521,1559.988525 
	C336.477844,1576.173950 341.740631,1592.346924 348.022888,1608.081177 
	C357.369690,1631.490479 367.177612,1654.748291 377.757629,1677.622803 
	C387.133667,1697.894287 397.150421,1717.819092 409.689148,1736.554443 
	C422.251007,1755.324219 431.985992,1775.966675 444.195129,1794.995972 
	C463.474152,1825.044556 484.243317,1854.094360 507.375305,1881.369507 
	C515.526306,1890.980347 523.598083,1900.659424 531.822815,1910.206665 
	C541.364746,1921.282837 550.648926,1932.615845 560.719238,1943.195801 
	C596.955872,1981.267212 635.038391,2017.433838 674.961914,2051.620605 
	C690.792908,2065.176514 707.016052,2078.289551 723.355469,2091.231934 
	C738.850769,2103.505371 754.620361,2115.441650 770.481262,2127.241455 
	C781.589966,2135.505615 793.176758,2143.125732 804.327515,2151.335938 
	C816.330994,2160.173828 827.695801,2169.922852 840.011841,2178.283447 
	C864.853699,2195.146729 890.147156,2211.344482 915.261414,2227.806152 
	C944.233826,2246.796631 972.917358,2266.249023 1002.272766,2284.628174 
	C1032.686035,2303.669922 1063.556763,2322.006104 1094.598999,2340.010498 
	C1118.427979,2353.831299 1142.898560,2366.541260 1166.962280,2379.962891 
	C1186.285767,2390.740723 1205.256592,2402.158936 1224.692993,2412.724121 
	C1248.407715,2425.615234 1272.393188,2438.013184 1296.358276,2450.437500 
	C1322.297729,2463.886475 1348.397461,2477.026611 1374.335693,2490.477783 
	C1395.288208,2501.343506 1416.141968,2512.401855 1436.970581,2523.504150 
	C1455.518311,2533.390869 1473.940918,2543.512695 1492.484009,2553.408203 
	C1498.521118,2556.630127 1505.055176,2557.998779 1511.502686,2554.963867 
	C1525.821411,2548.224121 1540.208496,2541.571045 1554.150269,2534.103271 
	C1573.299072,2523.845947 1591.832153,2512.432861 1611.039429,2502.291992 
	C1645.570435,2484.061279 1680.579224,2466.733398 1715.072388,2448.432861 
	C1759.206421,2425.016357 1803.071533,2401.090820 1846.965332,2377.223877 
	C1867.431274,2366.095947 1887.752930,2354.698242 1908.025757,2343.221436 
	C1922.918579,2334.790283 1937.826660,2326.355713 1952.370239,2317.345215 
	C1976.771362,2302.227051 2000.846436,2286.584473 2025.140137,2271.291748 
	C2037.947021,2263.229736 2051.111816,2255.726318 2063.788330,2247.468750 
	C2089.503174,2230.717773 2115.039551,2213.690918 2140.564453,2196.650391 
	C2157.031738,2185.656738 2173.749268,2174.979004 2189.649414,2163.207275 
	C2223.713623,2137.987793 2257.268555,2112.081543 2291.130615,2086.587158 
	C2322.224121,2063.177246 2350.661133,2036.722900 2379.107178,2010.274292 
	C2389.802246,2000.329956 2400.153076,1990.009399 2410.985840,1980.219971 
	C2433.234375,1960.113770 2453.693848,1938.286255 2472.826660,1915.276367 
	C2490.806396,1893.653564 2508.129150,1871.473755 2525.376465,1849.255981 
	C2536.549561,1834.862671 2547.657959,1820.352783 2557.732178,1805.188843 
	C2570.667969,1785.718262 2582.927979,1765.767822 2594.740479,1745.591675 
	C2603.883789,1729.973877 2612.534180,1713.994385 2620.249512,1697.631470 
	C2630.890137,1675.065918 2640.550049,1652.033691 2650.423096,1629.112183 
	C2656.627197,1614.708984 2662.783203,1600.268188 2668.344971,1585.610352 
	C2672.975830,1573.405396 2676.868164,1560.910034 2680.800293,1548.452515 
	C2685.883301,1532.348877 2691.228027,1516.296265 2695.437012,1499.958130 
	C2699.173584,1485.454346 2700.292969,1470.202515 2704.815186,1455.996216 
	C2709.228271,1442.130493 2709.622070,1427.731934 2713.153320,1413.761841 
	C2716.561768,1400.278076 2716.294434,1385.930420 2719.247559,1372.042480 
	C2721.831543,1359.890381 2721.489014,1347.105957 2722.312256,1334.592651 
	C2722.894287,1325.745850 2720.777344,1316.641357 2725.362793,1308.177612 
	C2726.213135,1306.607910 2725.656006,1304.246216 2725.656494,1302.250122 
	C2725.667236,1264.251343 2725.696289,1226.252563 2725.600586,1188.254028 
	C2725.593262,1185.349854 2724.714355,1182.442749 2724.187256,1179.546631 
	C2723.602051,1176.331055 2722.569580,1173.146606 2722.399658,1169.913696 
	C2721.375244,1150.412354 2720.548096,1130.900635 2719.630615,1111.393555 
	C2719.568604,1110.075195 2719.615967,1108.625122 2719.090332,1107.474976 
	C2714.142090,1096.650513 2716.816650,1084.702515 2713.897705,1073.480347 
	C2711.514160,1064.317017 2711.206787,1054.621094 2709.852539,1045.179443 
	C2709.110840,1040.005005 2708.410156,1034.793457 2707.161377,1029.729248 
	C2704.438965,1018.688965 2701.204346,1007.774780 2698.498779,996.730652 
	C2695.240234,983.427612 2693.413818,969.667053 2689.007080,956.774597 
	C2680.544922,932.018005 2672.506592,907.055664 2659.935791,883.840393 
	C2650.548340,866.503784 2643.000244,848.158325 2633.373535,830.967163 
	C2621.825928,810.344360 2608.730713,790.594727 2596.689453,770.240051 
	C2582.602051,746.427124 2565.493164,724.899902 2547.293945,704.227051 
	C2533.047852,688.044617 2517.478516,672.993652 2503.707031,656.433716 
	C2470.125732,616.052979 2430.455078,582.714294 2387.014160,553.698364 
	C2370.584473,542.724426 2352.828369,533.732727 2336.430908,522.715698 
	C2307.538086,503.303528 2275.666504,490.173157 2243.166748,478.995148 
	C2219.547119,470.871490 2194.715088,466.176178 2170.288818,460.535461 
	C2157.258057,457.526276 2143.738281,457.687103 2130.516113,454.804321 
	C2119.426758,452.386505 2107.593750,453.126038 2096.083984,452.136322 
	C2063.969482,449.374908 2031.796875,453.336548 1999.640259,454.388336 
	C1998.651123,454.420685 1997.344849,454.303345 1996.734985,454.858429 
	C1992.196289,458.989319 1986.659790,457.200928 1981.498535,457.717743 
	C1978.260742,458.041901 1975.068726,458.815186 1971.852905,459.368530 
	C1963.490845,460.807312 1955.134644,462.282288 1946.761475,463.653900 
	C1939.984863,464.763977 1933.078613,465.291626 1926.423462,466.886139 
	C1915.710083,469.452972 1905.268799,473.210510 1894.509399,475.517242 
	C1877.507812,479.162109 1861.428711,485.485168 1845.354980,491.715851 
	C1817.912842,502.353394 1793.351929,518.525391 1768.245605,533.549866 
	C1745.528320,547.144775 1724.625732,563.270020 1704.505249,580.491638 
	C1680.757690,600.817566 1658.638062,622.753052 1638.106445,646.264954 
	C1625.499634,660.701904 1613.077881,675.355591 1601.476562,690.599670 
	C1590.895630,704.503174 1580.529785,718.759094 1571.863403,733.887573 
	C1558.279175,757.600830 1545.664917,781.915466 1533.676636,806.481384 
	C1525.298340,823.649597 1518.537964,841.616150 1511.290771,859.322693 
	C1508.548706,866.022278 1506.468750,872.992859 1503.415894,881.769287 
	C1500.146851,870.375854 1498.278931,860.745239 1494.647339,851.833313 
	C1486.114502,830.893616 1477.161133,810.100769 1467.614136,789.604187 
	C1449.379517,750.456177 1426.112549,714.346741 1399.069336,680.751099 
	C1385.131226,663.435791 1370.293945,646.835693 1355.644653,630.103455 
	C1331.221069,602.207153 1303.090820,578.348022 1273.165894,556.692993 
	C1254.733276,543.354431 1235.409668,531.224976 1216.254639,518.912598 
	C1188.124512,500.831451 1157.127197,488.896820 1125.565796,478.610413 
	C1113.253296,474.597595 1100.723633,470.893799 1087.606201,469.170319 
	C1074.781860,467.485382 1062.393555,462.625122 1049.583984,460.646423 
	C1035.705566,458.502563 1021.733154,457.118561 1007.840332,454.726410 
	C996.270203,452.734161 984.216309,453.015961 972.385376,452.107605 
	C940.930176,449.692657 909.412354,452.872406 877.934570,454.360352 
	C877.269897,454.391785 876.467957,454.219299 875.962769,454.525665 
	C865.775452,460.704407 853.843384,456.014862 843.070557,460.030701 
	C835.573120,462.825500 826.934875,462.380280 819.041260,464.332581 
	C805.495667,467.682800 792.234741,472.195251 778.671753,475.461548 
	C756.568909,480.784515 735.686768,489.294281 715.248413,498.935486 
	C682.683472,514.297058 652.481750,533.791870 622.027466,552.852173 
	C600.687256,566.208313 581.122803,581.907837 562.306030,598.427246 
	C546.593079,612.221802 531.870056,627.208008 517.362366,642.295044 
	C499.872467,660.483459 482.740814,679.044128 466.097290,698.008057 
	C455.851654,709.682190 446.492859,722.180664 437.311279,734.729919 
	C427.774658,747.764465 419.596497,761.828003 409.643677,774.515442 
	C390.148651,799.367065 375.296021,826.949890 360.978119,854.829407 
	C352.765442,870.820984 345.594635,887.393433 338.783264,904.043335 
	C333.871307,916.050293 330.154205,928.561829 326.222260,940.949280 
	C322.781586,951.789062 319.718109,962.750916 316.610687,973.693665 
	C313.773682,983.684021 310.655182,993.624939 308.471588,1003.762329 
	C305.871979,1015.831238 304.404572,1028.140747 301.949005,1040.244995 
	C299.681549,1051.421875 296.181946,1062.366333 296.313507,1073.940918 
	C296.328613,1075.269165 296.589844,1076.816040 296.029907,1077.894531 
	C290.827209,1087.915771 296.756378,1099.892456 290.370544,1109.662964 
	C289.468567,1128.810791 288.561584,1147.958252 287.670441,1167.106567 
	C287.546661,1169.766479 288.490021,1173.082642 287.241638,1174.974731 
	C282.763855,1181.761230 284.782623,1189.128906 284.368256,1196.262085 
	C284.020966,1202.240234 283.800720,1208.235352 283.809784,1214.222656 
	C283.846130,1238.211914 283.934814,1262.201416 284.126099,1286.189819 
	C284.215240,1297.370117 286.644318,1308.545532 287.003998,1319.445679 
	C287.627380,1338.335327 290.685516,1357.004395 290.630341,1376.726196 
	C290.862366,1377.358032 291.312927,1377.638306 293.048920,1378.907593 
z"/>
<path fill="#FF0000" opacity="1.000000" stroke="none" 
	d="
M290.739075,1375.874390 
	C290.685516,1357.004395 287.627380,1338.335327 287.003998,1319.445679 
	C286.644318,1308.545532 284.215240,1297.370117 284.126099,1286.189819 
	C283.934814,1262.201416 283.846130,1238.211914 283.809784,1214.222656 
	C283.800720,1208.235352 284.020966,1202.240234 284.368256,1196.262085 
	C284.782623,1189.128906 282.763855,1181.761230 287.241638,1174.974731 
	C288.490021,1173.082642 287.546661,1169.766479 287.670441,1167.106567 
	C288.561584,1147.958252 289.468567,1128.810791 290.370544,1109.662964 
	C296.756378,1099.892456 290.827209,1087.915771 296.029907,1077.894531 
	C296.589844,1076.816040 296.328613,1075.269165 296.313507,1073.940918 
	C296.181946,1062.366333 299.681549,1051.421875 301.949005,1040.244995 
	C304.404572,1028.140747 305.871979,1015.831238 308.471588,1003.762329 
	C310.655182,993.624939 313.773682,983.684021 316.610687,973.693665 
	C319.718109,962.750916 322.781586,951.789062 326.222260,940.949280 
	C330.154205,928.561829 333.871307,916.050293 338.783264,904.043335 
	C345.594635,887.393433 352.765442,870.820984 360.978119,854.829407 
	C375.296021,826.949890 390.148651,799.367065 409.643677,774.515442 
	C419.596497,761.828003 427.774658,747.764465 437.311279,734.729919 
	C446.492859,722.180664 455.851654,709.682190 466.097290,698.008057 
	C482.740814,679.044128 499.872467,660.483459 517.362366,642.295044 
	C531.870056,627.208008 546.593079,612.221802 562.306030,598.427246 
	C581.122803,581.907837 600.687256,566.208313 622.027466,552.852173 
	C652.481750,533.791870 682.683472,514.297058 715.248413,498.935486 
	C735.686768,489.294281 756.568909,480.784515 778.671753,475.461548 
	C792.234741,472.195251 805.495667,467.682800 819.041260,464.332581 
	C826.934875,462.380280 835.573120,462.825500 843.070557,460.030701 
	C853.843384,456.014862 865.775452,460.704407 875.962769,454.525665 
	C876.467957,454.219299 877.269897,454.391785 877.934570,454.360352 
	C909.412354,452.872406 940.930176,449.692657 972.385376,452.107605 
	C984.216309,453.015961 996.270203,452.734161 1007.840332,454.726410 
	C1021.733154,457.118561 1035.705566,458.502563 1049.583984,460.646423 
	C1062.393555,462.625122 1074.781860,467.485382 1087.606201,469.170319 
	C1100.723633,470.893799 1113.253296,474.597595 1125.565796,478.610413 
	C1157.127197,488.896820 1188.124512,500.831451 1216.254639,518.912598 
	C1235.409668,531.224976 1254.733276,543.354431 1273.165894,556.692993 
	C1303.090820,578.348022 1331.221069,602.207153 1355.644653,630.103455 
	C1370.293945,646.835693 1385.131226,663.435791 1399.069336,680.751099 
	C1426.112549,714.346741 1449.379517,750.456177 1467.614136,789.604187 
	C1477.161133,810.100769 1486.114502,830.893616 1494.647339,851.833313 
	C1498.278931,860.745239 1500.146851,870.375854 1503.415894,881.769287 
	C1506.468750,872.992859 1508.548706,866.022278 1511.290771,859.322693 
	C1518.537964,841.616150 1525.298340,823.649597 1533.676636,806.481384 
	C1545.664917,781.915466 1558.279175,757.600830 1571.863403,733.887573 
	C1580.529785,718.759094 1590.895630,704.503174 1601.476562,690.599670 
	C1613.077881,675.355591 1625.499634,660.701904 1638.106445,646.264954 
	C1658.638062,622.753052 1680.757690,600.817566 1704.505249,580.491638 
	C1724.625732,563.270020 1745.528320,547.144775 1768.245605,533.549866 
	C1793.351929,518.525391 1817.912842,502.353394 1845.354980,491.715851 
	C1861.428711,485.485168 1877.507812,479.162109 1894.509399,475.517242 
	C1905.268799,473.210510 1915.710083,469.452972 1926.423462,466.886139 
	C1933.078613,465.291626 1939.984863,464.763977 1946.761475,463.653900 
	C1955.134644,462.282288 1963.490845,460.807312 1971.852905,459.368530 
	C1975.068726,458.815186 1978.260742,458.041901 1981.498535,457.717743 
	C1986.659790,457.200928 1992.196289,458.989319 1996.734985,454.858429 
	C1997.344849,454.303345 1998.651123,454.420685 1999.640259,454.388336 
	C2031.796875,453.336548 2063.969482,449.374908 2096.083984,452.136322 
	C2107.593750,453.126038 2119.426758,452.386505 2130.516113,454.804321 
	C2143.738281,457.687103 2157.258057,457.526276 2170.288818,460.535461 
	C2194.715088,466.176178 2219.547119,470.871490 2243.166748,478.995148 
	C2275.666504,490.173157 2307.538086,503.303528 2336.430908,522.715698 
	C2352.828369,533.732727 2370.584473,542.724426 2387.014160,553.698364 
	C2430.455078,582.714294 2470.125732,616.052979 2503.707031,656.433716 
	C2517.478516,672.993652 2533.047852,688.044617 2547.293945,704.227051 
	C2565.493164,724.899902 2582.602051,746.427124 2596.689453,770.240051 
	C2608.730713,790.594727 2621.825928,810.344360 2633.373535,830.967163 
	C2643.000244,848.158325 2650.548340,866.503784 2659.935791,883.840393 
	C2672.506592,907.055664 2680.544922,932.018005 2689.007080,956.774597 
	C2693.413818,969.667053 2695.240234,983.427612 2698.498779,996.730652 
	C2701.204346,1007.774780 2704.438965,1018.688965 2707.161377,1029.729248 
	C2708.410156,1034.793457 2709.110840,1040.005005 2709.852539,1045.179443 
	C2711.206787,1054.621094 2711.514160,1064.317017 2713.897705,1073.480347 
	C2716.816650,1084.702515 2714.142090,1096.650513 2719.090332,1107.474976 
	C2719.615967,1108.625122 2719.568604,1110.075195 2719.630615,1111.393555 
	C2720.548096,1130.900635 2721.375244,1150.412354 2722.399658,1169.913696 
	C2722.569580,1173.146606 2723.602051,1176.331055 2724.187256,1179.546631 
	C2724.714355,1182.442749 2725.593262,1185.349854 2725.600586,1188.254028 
	C2725.696289,1226.252563 2725.667236,1264.251343 2725.656494,1302.250122 
	C2725.656006,1304.246216 2726.213135,1306.607910 2725.362793,1308.177612 
	C2720.777344,1316.641357 2722.894287,1325.745850 2722.312256,1334.592651 
	C2721.489014,1347.105957 2721.831543,1359.890381 2719.247559,1372.042480 
	C2716.294434,1385.930420 2716.561768,1400.278076 2713.153320,1413.761841 
	C2709.622070,1427.731934 2709.228271,1442.130493 2704.815186,1455.996216 
	C2700.292969,1470.202515 2699.173584,1485.454346 2695.437012,1499.958130 
	C2691.228027,1516.296265 2685.883301,1532.348877 2680.800293,1548.452515 
	C2676.868164,1560.910034 2672.975830,1573.405396 2668.344971,1585.610352 
	C2662.783203,1600.268188 2656.627197,1614.708984 2650.423096,1629.112183 
	C2640.550049,1652.033691 2630.890137,1675.065918 2620.249512,1697.631470 
	C2612.534180,1713.994385 2603.883789,1729.973877 2594.740479,1745.591675 
	C2582.927979,1765.767822 2570.667969,1785.718262 2557.732178,1805.188843 
	C2547.657959,1820.352783 2536.549561,1834.862671 2525.376465,1849.255981 
	C2508.129150,1871.473755 2490.806396,1893.653564 2472.826660,1915.276367 
	C2453.693848,1938.286255 2433.234375,1960.113770 2410.985840,1980.219971 
	C2400.153076,1990.009399 2389.802246,2000.329956 2379.107178,2010.274292 
	C2350.661133,2036.722900 2322.224121,2063.177246 2291.130615,2086.587158 
	C2257.268555,2112.081543 2223.713623,2137.987793 2189.649414,2163.207275 
	C2173.749268,2174.979004 2157.031738,2185.656738 2140.564453,2196.650391 
	C2115.039551,2213.690918 2089.503174,2230.717773 2063.788330,2247.468750 
	C2051.111816,2255.726318 2037.947021,2263.229736 2025.140137,2271.291748 
	C2000.846436,2286.584473 1976.771362,2302.227051 1952.370239,2317.345215 
	C1937.826660,2326.355713 1922.918579,2334.790283 1908.025757,2343.221436 
	C1887.752930,2354.698242 1867.431274,2366.095947 1846.965332,2377.223877 
	C1803.071533,2401.090820 1759.206421,2425.016357 1715.072388,2448.432861 
	C1680.579224,2466.733398 1645.570435,2484.061279 1611.039429,2502.291992 
	C1591.832153,2512.432861 1573.299072,2523.845947 1554.150269,2534.103271 
	C1540.208496,2541.571045 1525.821411,2548.224121 1511.502686,2554.963867 
	C1505.055176,2557.998779 1498.521118,2556.630127 1492.484009,2553.408203 
	C1473.940918,2543.512695 1455.518311,2533.390869 1436.970581,2523.504150 
	C1416.141968,2512.401855 1395.288208,2501.343506 1374.335693,2490.477783 
	C1348.397461,2477.026611 1322.297729,2463.886475 1296.358276,2450.437500 
	C1272.393188,2438.013184 1248.407715,2425.615234 1224.692993,2412.724121 
	C1205.256592,2402.158936 1186.285767,2390.740723 1166.962280,2379.962891 
	C1142.898560,2366.541260 1118.427979,2353.831299 1094.598999,2340.010498 
	C1063.556763,2322.006104 1032.686035,2303.669922 1002.272766,2284.628174 
	C972.917358,2266.249023 944.233826,2246.796631 915.261414,2227.806152 
	C890.147156,2211.344482 864.853699,2195.146729 840.011841,2178.283447 
	C827.695801,2169.922852 816.330994,2160.173828 804.327515,2151.335938 
	C793.176758,2143.125732 781.589966,2135.505615 770.481262,2127.241455 
	C754.620361,2115.441650 738.850769,2103.505371 723.355469,2091.231934 
	C707.016052,2078.289551 690.792908,2065.176514 674.961914,2051.620605 
	C635.038391,2017.433838 596.955872,1981.267212 560.719238,1943.195801 
	C550.648926,1932.615845 541.364746,1921.282837 531.822815,1910.206665 
	C523.598083,1900.659424 515.526306,1890.980347 507.375305,1881.369507 
	C484.243317,1854.094360 463.474152,1825.044556 444.195129,1794.995972 
	C431.985992,1775.966675 422.251007,1755.324219 409.689148,1736.554443 
	C397.150421,1717.819092 387.133667,1697.894287 377.757629,1677.622803 
	C367.177612,1654.748291 357.369690,1631.490479 348.022888,1608.081177 
	C341.740631,1592.346924 336.477844,1576.173950 331.427521,1559.988525 
	C326.403168,1543.886475 322.206360,1527.525879 317.661682,1511.274536 
	C314.697144,1500.673340 311.674164,1490.087280 308.850677,1479.448608 
	C307.683929,1475.052368 306.828949,1470.559448 306.078094,1466.069336 
	C303.871582,1452.873413 301.882080,1439.640747 299.624176,1426.453979 
	C298.091766,1417.504517 295.947784,1408.651855 294.645599,1399.673462 
	C293.651367,1392.818481 293.548370,1385.834351 292.439941,1377.874023 
	C291.617615,1376.348145 291.253662,1376.026245 290.739075,1375.874390 
z"/>
<path fill="#BD0000" opacity="1.000000" stroke="none" 
	d="
M290.684692,1376.300293 
	C291.253662,1376.026245 291.617615,1376.348145 291.906494,1377.203613 
	C291.312927,1377.638306 290.862366,1377.358032 290.684692,1376.300293 
z"/>
</svg>