<?xml version="1.0" encoding="UTF-8"?>
<svg id="Layer_1" xmlns="http://www.w3.org/2000/svg" version="1.1" viewBox="0 0 3000 3000">
  <!-- Generator: Adobe Illustrator 29.6.1, SVG Export Plug-In . SVG Version: 2.1.1 Build 9)  -->
  <defs>
    <style>
      .st0 {
        fill: red;
      }

      .st1 {
        fill: #bd0000;
      }
    </style>
  </defs>
  <path class="st0" d="M290.74,1375.87c-.05-18.87-3.11-37.54-3.74-56.43-.36-10.9-2.79-22.08-2.88-33.26-.19-23.99-.28-47.98-.32-71.97,0-5.99.21-11.98.56-17.96.41-7.13-1.6-14.5,2.87-21.29,1.25-1.89.31-5.21.43-7.87.89-19.15,1.8-38.3,2.7-57.44,6.39-9.77.46-21.75,5.66-31.77.56-1.08.3-2.63.28-3.95-.13-11.57,3.37-22.52,5.64-33.7,2.46-12.1,3.92-24.41,6.52-36.48,2.18-10.14,5.3-20.08,8.14-30.07,3.11-10.94,6.17-21.9,9.61-32.74,3.93-12.39,7.65-24.9,12.56-36.91,6.81-16.65,13.98-33.22,22.19-49.21,14.32-27.88,29.17-55.46,48.67-80.31,9.95-12.69,18.13-26.75,27.67-39.79,9.18-12.55,18.54-25.05,28.79-36.72,16.64-18.96,33.78-37.52,51.27-55.71,14.51-15.09,29.23-30.07,44.94-43.87,18.82-16.52,38.38-32.22,59.72-45.58,30.45-19.06,60.66-38.56,93.22-53.92,20.44-9.64,41.32-18.15,63.42-23.47,13.56-3.27,26.82-7.78,40.37-11.13,7.89-1.95,16.53-1.51,24.03-4.3,10.77-4.02,22.7.67,32.89-5.51.51-.31,1.31-.13,1.97-.17,31.48-1.49,63-4.67,94.45-2.25,11.83.91,23.88.63,35.45,2.62,13.89,2.39,27.87,3.78,41.74,5.92,12.81,1.98,25.2,6.84,38.02,8.52,13.12,1.72,25.65,5.43,37.96,9.44,31.56,10.29,62.56,22.22,90.69,40.3,19.16,12.31,38.48,24.44,56.91,37.78,29.92,21.66,58.06,45.51,82.48,73.41,14.65,16.73,29.49,33.33,43.42,50.65,27.04,33.6,50.31,69.71,68.54,108.85,9.55,20.5,18.5,41.29,27.03,62.23,3.63,8.91,5.5,18.54,8.77,29.94,3.05-8.78,5.13-15.75,7.87-22.45,7.25-17.71,14.01-35.67,22.39-52.84,11.99-24.57,24.6-48.88,38.19-72.59,8.67-15.13,19.03-29.38,29.61-43.29,11.6-15.24,24.02-29.9,36.63-44.33,20.53-23.51,42.65-45.45,66.4-65.77,20.12-17.22,41.02-33.35,63.74-46.94,25.11-15.02,49.67-31.2,77.11-41.83,16.07-6.23,32.15-12.55,49.15-16.2,10.76-2.31,21.2-6.06,31.91-8.63,6.66-1.59,13.56-2.12,20.34-3.23,8.37-1.37,16.73-2.85,25.09-4.29,3.22-.55,6.41-1.33,9.65-1.65,5.16-.52,10.7,1.27,15.24-2.86.61-.56,1.92-.44,2.91-.47,32.16-1.05,64.33-5.01,96.44-2.25,11.51.99,23.34.25,34.43,2.67,13.22,2.88,26.74,2.72,39.77,5.73,24.43,5.64,49.26,10.34,72.88,18.46,32.5,11.18,64.37,24.31,93.26,43.72,16.4,11.02,34.15,20.01,50.58,30.98,43.44,29.02,83.11,62.35,116.69,102.74,13.77,16.56,29.34,31.61,43.59,47.79,18.2,20.67,35.31,42.2,49.4,66.01,12.04,20.35,25.14,40.1,36.68,60.73,9.63,17.19,17.17,35.54,26.56,52.87,12.57,23.22,20.61,48.18,29.07,72.93,4.41,12.89,6.23,26.65,9.49,39.96,2.71,11.04,5.94,21.96,8.66,33,1.25,5.06,1.95,10.28,2.69,15.45,1.35,9.44,1.66,19.14,4.05,28.3,2.92,11.22.24,23.17,5.19,33.99.53,1.15.48,2.6.54,3.92.92,19.51,1.74,39.02,2.77,58.52.17,3.23,1.2,6.42,1.79,9.63.53,2.9,1.41,5.8,1.41,8.71.1,38,.07,76,.06,114,0,2,.56,4.36-.29,5.93-4.59,8.46-2.47,17.57-3.05,26.42-.82,12.51-.48,25.3-3.06,37.45-2.95,13.89-2.69,28.24-6.09,41.72-3.53,13.97-3.93,28.37-8.34,42.23-4.52,14.21-5.64,29.46-9.38,43.96-4.21,16.34-9.55,32.39-14.64,48.49-3.93,12.46-7.82,24.95-12.46,37.16-5.56,14.66-11.72,29.1-17.92,43.5-9.87,22.92-19.53,45.95-30.17,68.52-7.72,16.36-16.37,32.34-25.51,47.96-11.81,20.18-24.07,40.13-37.01,59.6-10.07,15.16-21.18,29.67-32.36,44.07-17.25,22.22-34.57,44.4-52.55,66.02-19.13,23.01-39.59,44.84-61.84,64.94-10.83,9.79-21.18,20.11-31.88,30.05-28.45,26.45-56.88,52.9-87.98,76.31-33.86,25.49-67.42,51.4-101.48,76.62-15.9,11.77-32.62,22.45-49.08,33.44-25.52,17.04-51.06,34.07-76.78,50.82-12.68,8.26-25.84,15.76-38.65,23.82-24.29,15.29-48.37,30.94-72.77,46.05-14.54,9.01-29.45,17.45-44.34,25.88-20.27,11.48-40.59,22.87-61.06,34-43.89,23.87-87.76,47.79-131.89,71.21-34.49,18.3-69.5,35.63-104.03,53.86-19.21,10.14-37.74,21.55-56.89,31.81-13.94,7.47-28.33,14.12-42.65,20.86-6.45,3.03-12.98,1.67-19.02-1.56-18.54-9.9-36.97-20.02-55.51-29.9-20.83-11.1-41.68-22.16-62.63-33.03-25.94-13.45-52.04-26.59-77.98-40.04-23.97-12.42-47.95-24.82-71.67-37.71-19.44-10.57-38.41-21.98-57.73-32.76-24.06-13.42-48.53-26.13-72.36-39.95-31.04-18-61.91-36.34-92.33-55.38-29.36-18.38-58.04-37.83-87.01-56.82-25.11-16.46-50.41-32.66-75.25-49.52-12.32-8.36-23.68-18.11-35.68-26.95-11.15-8.21-22.74-15.83-33.85-24.09-15.86-11.8-31.63-23.74-47.13-36.01-16.34-12.94-32.56-26.06-48.39-39.61-39.92-34.19-78.01-70.35-114.24-108.42-10.07-10.58-19.35-21.91-28.9-32.99-8.22-9.55-16.3-19.23-24.45-28.84-23.13-27.28-43.9-56.32-63.18-86.37-12.21-19.03-21.94-39.67-34.51-58.44-12.54-18.74-22.56-38.66-31.93-58.93-10.58-22.87-20.39-46.13-29.73-69.54-6.28-15.73-11.55-31.91-16.6-48.09-5.02-16.1-9.22-32.46-13.77-48.71-2.96-10.6-5.99-21.19-8.81-31.83-1.17-4.4-2.02-8.89-2.77-13.38-2.21-13.2-4.2-26.43-6.45-39.62-1.53-8.95-3.68-17.8-4.98-26.78-.99-6.85-1.1-13.84-2.21-21.8-.82-1.53-1.19-1.85-1.7-2Z"/>
  <path class="st1" d="M290.68,1376.3c.57-.27.93.05,1.22.9-.59.43-1.04.15-1.22-.9Z"/>
</svg>